<svg id="visual" viewBox="0 0 960 540" width="960" height="540" xmlns="http://www.w3.org/2000/svg" xmlns:xlink="http://www.w3.org/1999/xlink" version="1.1"><rect x="0" y="0" width="960" height="540" fill="#002233"></rect><path d="M877 540L880 532.5C883 525 889 510 881.7 495C874.3 480 853.7 465 845.3 450C837 435 841 420 855 405C869 390 893 375 900.7 360C908.3 345 899.7 330 897.5 315C895.3 300 899.7 285 893.5 270C887.3 255 870.7 240 862.2 225C853.7 210 853.3 195 853.5 180C853.7 165 854.3 150 856.5 135C858.7 120 862.3 105 858.2 90C854 75 842 60 833.8 45C825.7 30 821.3 15 819.2 7.5L817 0L960 0L960 7.5C960 15 960 30 960 45C960 60 960 75 960 90C960 105 960 120 960 135C960 150 960 165 960 180C960 195 960 210 960 225C960 240 960 255 960 270C960 285 960 300 960 315C960 330 960 345 960 360C960 375 960 390 960 405C960 420 960 435 960 450C960 465 960 480 960 495C960 510 960 525 960 532.5L960 540Z" fill="#488aee" stroke-linecap="round" stroke-linejoin="miter"></path></svg>